<?xml version="1.0" standalone="no"?>
<!DOCTYPE svg PUBLIC "-//W3C//DTD SVG 20010904//EN"
 "http://www.w3.org/TR/2001/REC-SVG-20010904/DTD/svg10.dtd">
<svg version="1.0" xmlns="http://www.w3.org/2000/svg"
 width="1080.000000pt" height="1080.000000pt" viewBox="0 0 1080.000000 1080.000000"
 preserveAspectRatio="xMidYMid meet">
<metadata>
Created by potrace 1.11, written by Peter Selinger 2001-2013
</metadata>
<g transform="translate(0.000000,1080.000000) scale(0.100000,-0.100000)"
fill="#000000" stroke="none">
<path d="M5095 10794 c-854 -53 -1606 -250 -2326 -608 -910 -454 -1645 -1127
-2132 -1952 -339 -576 -532 -1154 -609 -1824 -20 -177 -17 -718 6 -895 70
-555 201 -1002 431 -1470 452 -921 1193 -1676 2149 -2191 73 -39 132 -78 137
-89 6 -15 354 -1577 386 -1737 5 -24 10 -28 42 -28 33 1 106 57 781 601 680
547 748 599 775 595 193 -32 901 -43 1165 -18 608 58 1146 183 1667 388 1449
571 2530 1662 2994 3022 104 306 173 621 211 967 20 182 17 723 -5 895 -43
337 -103 607 -197 890 -78 237 -125 351 -235 575 -304 619 -720 1143 -1269
1599 -891 742 -2065 1198 -3281 1275 -125 8 -587 11 -690 5z"/>
</g>
</svg>
